<svg xmlns="http://www.w3.org/2000/svg" viewBox="0 0 1372.36 469.25"><defs><style>.cls-1,.cls-14,.cls-3{fill:none;}.cls-1,.cls-10,.cls-13,.cls-14,.cls-3,.cls-4,.cls-5,.cls-6{stroke:#333;}.cls-1,.cls-10,.cls-3,.cls-4,.cls-5,.cls-6{stroke-linecap:round;stroke-linejoin:round;}.cls-10,.cls-11,.cls-2,.cls-7{fill:#333;}.cls-3,.cls-6{stroke-dasharray:12 6;}.cls-12,.cls-13,.cls-4,.cls-5,.cls-6{fill:#fff;}.cls-5{stroke-dasharray:6 3;}.cls-7{font-size:14px;}.cls-11,.cls-7{font-family:MyriadPro-Regular, Myriad Pro;}.cls-8{letter-spacing:-0.01em;}.cls-9{letter-spacing:0em;}.cls-11{font-size:16px;}.cls-13,.cls-14{stroke-miterlimit:10;}.cls-14{stroke-dasharray:3 6;}.cls-15{isolation:isolate;}.cls-16{fill:#1a1a1a;}</style></defs><g id="Layer_2" data-name="Layer 2"><g id="Layer_1-2" data-name="Layer 1"><path class="cls-1" d="M293,.5s245.38,3,417,14c140,9,143,113,143,113"/><line class="cls-1" x1="293" y1="231.32" x2="293" y2="0.5"/><polygon class="cls-2" points="297.99 229.87 293 238.5 288.01 229.87 297.99 229.87"/><path class="cls-1" d="M292.92,246c16.07,0,32.58,23.81,32.58,53.18s-18.3,53.18-32.58,53.18"/><ellipse class="cls-1" cx="292.79" cy="299.18" rx="13.29" ry="53.18"/><ellipse class="cls-3" cx="80.5" cy="299.75" rx="80" ry="160"/><ellipse class="cls-4" cx="88.57" cy="219.92" rx="31.48" ry="62.97"/><ellipse class="cls-4" cx="106.54" cy="364.65" rx="31.48" ry="62.97"/><ellipse class="cls-4" cx="41.7" cy="322.01" rx="31.48" ry="62.97"/><ellipse class="cls-2" cx="61.31" cy="317.19" rx="6.02" ry="12.04"/><ellipse class="cls-2" cx="43.13" cy="336.88" rx="6.02" ry="12.04"/><ellipse class="cls-2" cx="36.72" cy="365.63" rx="6.02" ry="12.04"/><ellipse class="cls-2" cx="66.2" cy="219.92" rx="6.02" ry="12.04"/><ellipse class="cls-2" cx="81.69" cy="239.88" rx="6.02" ry="12.04"/><ellipse class="cls-2" cx="88.57" cy="184.83" rx="6.02" ry="12.04"/><ellipse class="cls-2" cx="97.51" cy="219.92" rx="6.02" ry="12.04"/><ellipse class="cls-2" cx="100.61" cy="255.71" rx="6.02" ry="12.04"/><ellipse class="cls-2" cx="112.65" cy="344.34" rx="6.02" ry="12.04"/><ellipse class="cls-2" cx="91.32" cy="348.85" rx="6.02" ry="12.04"/><ellipse class="cls-2" cx="97.6" cy="385.25" rx="6.02" ry="12.04"/><ellipse class="cls-2" cx="122.61" cy="371.07" rx="6.02" ry="12.04"/><ellipse class="cls-2" cx="115.92" cy="400.8" rx="6.02" ry="12.04"/><ellipse class="cls-2" cx="24.46" cy="321.45" rx="6.02" ry="12.04"/><ellipse class="cls-2" cx="48.21" cy="293.45" rx="6.02" ry="12.04"/><ellipse class="cls-5" cx="774.5" cy="299" rx="54.75" ry="109.5"/><polygon class="cls-1" points="853.22 468.75 695.78 406.53 695.78 191.47 853.22 129.25 853.22 468.75"/><ellipse class="cls-6" cx="774.5" cy="299" rx="24" ry="48"/><line class="cls-1" x1="853" y1="299.5" x2="957.82" y2="299.5"/><polygon class="cls-2" points="956.37 304.49 965 299.5 956.37 294.51 956.37 304.49"/><ellipse class="cls-2" cx="420.21" cy="260.82" rx="5.01" ry="10.01"/><ellipse class="cls-2" cx="644.21" cy="245.82" rx="5.01" ry="10.01"/><ellipse class="cls-2" cx="870.21" cy="331.82" rx="5.01" ry="10.01"/><ellipse class="cls-2" cx="396.21" cy="314.82" rx="5.01" ry="10.01"/><ellipse class="cls-2" cx="650.21" cy="349.82" rx="5.01" ry="10.01" transform="translate(-5.23 9.9) rotate(-0.87)"/><ellipse class="cls-2" cx="891.75" cy="274.91" rx="10.05" ry="20.09"/><ellipse class="cls-2" cx="508.75" cy="324.91" rx="10.05" ry="20.09"/><ellipse class="cls-2" cx="605.75" cy="289.91" rx="10.05" ry="20.09"/><text class="cls-7" transform="translate(466.69 294.12)">n<tspan class="cls-8" x="7.77" y="0">o</tspan><tspan class="cls-9" x="15.36" y="0">w</tspan></text><polygon class="cls-10" points="291.95 269.01 284.5 316.15 299.5 327.94 291.95 269.01"/><line class="cls-6" x1="853" y1="247.77" x2="934" y2="244.5"/><line class="cls-6" x1="314" y1="269.5" x2="774.02" y2="250.95"/><line class="cls-6" x1="314" y1="328.5" x2="773" y2="347.5"/><line class="cls-1" x1="326" y1="299.5" x2="774" y2="299.5"/><line class="cls-1" x1="479.5" y1="300" x2="479.5" y2="304.5"/><text class="cls-11" transform="translate(328.75 295.62)">-∞</text><text class="cls-11" transform="translate(933.43 295.62)">+∞</text><text class="cls-7" transform="translate(936.93 314.12)">time</text><line class="cls-1" x1="337.5" y1="300" x2="337.5" y2="304.5"/><polygon class="cls-12" points="312.95 128.89 323.23 146.66 302.74 146.66 312.95 128.89"/><polygon class="cls-12" points="312.98 128.82 312.95 128.89 312.9 128.82 312.98 128.82"/><polygon class="cls-12" points="312.95 128.89 302.74 146.66 292.49 129.02 292.6 128.82 312.9 128.82 312.95 128.89"/><polygon class="cls-12" points="302.8 111.34 312.9 128.82 292.6 128.82 302.74 111.37 302.8 111.34"/><polygon class="cls-12" points="302.8 111.34 302.74 111.37 282.25 111.37 282.19 111.34 292.49 93.54 302.8 111.34"/><polygon class="cls-12" points="302.74 111.37 292.6 128.82 292.39 128.82 282.25 111.37 302.74 111.37"/><polygon class="cls-12" points="292.49 129.02 302.74 146.66 282.25 146.66 292.49 129.02"/><polygon class="cls-12" points="292.6 128.82 292.49 129.02 292.39 128.82 292.6 128.82"/><polygon class="cls-12" points="292.39 128.82 292.49 129.02 282.25 146.66 272.04 128.89 272.08 128.82 292.39 128.82"/><polygon class="cls-12" points="292.39 128.82 272.08 128.82 282.19 111.34 282.25 111.37 292.39 128.82"/><polygon class="cls-12" points="272.04 128.89 282.25 146.66 261.76 146.66 272.04 128.89"/><polygon class="cls-12" points="272.08 128.82 272.04 128.89 272.01 128.82 272.08 128.82"/><polygon class="cls-1" points="302.74 146.66 323.23 146.66 312.95 128.89 312.9 128.82 302.8 111.34 292.49 93.54 282.19 111.34 272.08 128.82 272.04 128.89 261.76 146.66 282.25 146.66 302.74 146.66"/><polyline class="cls-1" points="282.25 111.37 292.39 128.82 292.49 129.02 302.74 146.66 312.95 128.89 312.98 128.82 312.9 128.82 292.6 128.82 292.39 128.82 272.08 128.82 272.01 128.82 272.04 128.89 282.25 146.66 292.49 129.02 292.6 128.82 302.74 111.37"/><line class="cls-1" x1="282.25" y1="111.37" x2="302.74" y2="111.37"/><polygon class="cls-2" points="312.95 195.22 323.23 212.99 302.74 212.99 312.95 195.22"/><polygon class="cls-12" points="312.95 195.22 302.74 212.99 292.49 195.36 292.6 195.16 312.9 195.16 312.95 195.22"/><polygon class="cls-12" points="302.8 177.68 312.9 195.16 292.6 195.16 302.74 177.71 302.8 177.68"/><polygon class="cls-2" points="302.8 177.68 302.74 177.71 282.25 177.71 282.19 177.68 292.49 159.88 302.8 177.68"/><polygon class="cls-12" points="302.74 177.71 292.6 195.16 292.39 195.16 282.25 177.71 302.74 177.71"/><polygon class="cls-2" points="292.49 195.36 302.74 212.99 282.25 212.99 292.49 195.36"/><polygon class="cls-2" points="292.39 195.16 292.49 195.36 282.25 212.99 272.04 195.22 272.08 195.16 292.39 195.16"/><polygon class="cls-2" points="292.39 195.16 272.08 195.16 282.19 177.68 282.25 177.71 292.39 195.16"/><polygon class="cls-12" points="272.04 195.22 282.25 212.99 261.76 212.99 272.04 195.22"/><polygon class="cls-1" points="302.74 212.99 323.23 212.99 312.95 195.22 312.9 195.16 302.8 177.68 292.49 159.88 282.19 177.68 272.08 195.16 272.04 195.22 261.76 212.99 282.25 212.99 302.74 212.99"/><polyline class="cls-1" points="282.25 177.71 292.39 195.16 292.49 195.36 302.74 212.99 312.95 195.22 312.98 195.16 312.9 195.16 292.6 195.16 292.39 195.16 272.08 195.16 272.01 195.16 272.04 195.22 282.25 212.99 292.49 195.36 292.6 195.16 302.74 177.71"/><line class="cls-1" x1="282.25" y1="177.71" x2="302.74" y2="177.71"/><polygon class="cls-12" points="312.6 80.69 292.99 80.69 302.69 63.31 312.6 80.69"/><polygon class="cls-12" points="302.74 63.24 302.69 63.31 302.65 63.24 302.74 63.24"/><polygon class="cls-12" points="302.65 63.24 302.69 63.31 292.99 80.69 292.51 80.69 292.39 80.69 282.3 63.3 282.32 63.24 302.65 63.24"/><polygon class="cls-12" points="292.49 45.41 302.65 63.24 282.32 63.24 292.49 45.41"/><polygon class="cls-12" points="282.3 63.3 292.39 80.69 272.37 80.69 282.3 63.3"/><polygon class="cls-12" points="282.32 63.24 282.3 63.3 282.25 63.24 282.32 63.24"/><polyline class="cls-1" points="312.71 80.89 312.6 80.69 302.69 63.31 302.65 63.24 292.49 45.41 282.32 63.24 282.3 63.3 272.37 80.69 272.26 80.89"/><polyline class="cls-1" points="292.89 80.89 292.99 80.69 302.69 63.31 302.74 63.24"/><polyline class="cls-1" points="292.51 80.69 292.39 80.69 272.37 80.69 272.01 80.69"/><polyline class="cls-1" points="312.98 80.69 312.6 80.69 292.99 80.69 292.51 80.69"/><polyline class="cls-1" points="282.25 63.24 282.3 63.3 292.39 80.69 292.51 80.89"/><polyline class="cls-1" points="302.74 63.24 302.65 63.24 282.32 63.24 282.25 63.24"/><polygon class="cls-13" points="292.9 14.12 302.41 32.36 282.59 32.36 292.9 14.12"/><line class="cls-5" x1="853" y1="180.56" x2="896" y2="175.5"/><line class="cls-5" x1="293" y1="246.5" x2="774.54" y2="189.8"/><line class="cls-5" x1="293" y1="352.5" x2="774" y2="408.5"/><ellipse class="cls-2" cx="781.99" cy="324.56" rx="5.01" ry="10.01"/><ellipse class="cls-2" cx="775.99" cy="274.56" rx="5.01" ry="10.01"/><ellipse class="cls-2" cx="750.99" cy="235.56" rx="5.01" ry="10.01"/><ellipse class="cls-2" cx="764.99" cy="314.56" rx="5.01" ry="10.01"/><ellipse class="cls-2" cx="750.99" cy="368.56" rx="5.01" ry="10.01"/><ellipse class="cls-2" cx="786.99" cy="223.56" rx="5.01" ry="10.01"/><polyline class="cls-4" points="1371.61 262.98 1223 299.28 1223 298.84 1371.86 336.17"/><polyline class="cls-1" points="1350.6 191 1222.8 299.12 1222.81 300.11 1351.35 409"/><polygon class="cls-10" points="1348.4 304.97 1223.36 299.61 1223.41 299.92 1339.33 252.74 1348.4 304.97"/><line class="cls-1" x1="89" y1="184.5" x2="292" y2="269.5"/><line class="cls-1" x1="299" y1="327.5" x2="123" y2="371.5"/><line class="cls-1" x1="24" y1="321.5" x2="284" y2="316.5"/><path class="cls-1" d="M1214,319.5c-29.94-.06-29.85-40.06-59.79-40.12s-30,39.93-60,39.87-29.85-40.06-59.79-40.12-30,39.93-60,39.87"/><line class="cls-14" x1="965.5" y1="299.5" x2="1223.5" y2="299.5"/><line class="cls-6" x1="853" y1="350.5" x2="934" y2="353.77"/><line class="cls-5" x1="853" y1="417.7" x2="896" y2="422.77"/><line class="cls-1" x1="1110.24" y1="220.83" x2="1136.76" y2="222.09"/><line class="cls-1" x1="1136.76" y1="222.09" x2="1117.81" y2="204.41"/><line class="cls-1" x1="1116.55" y1="204.41" x2="1136.76" y2="186.73"/><line class="cls-1" x1="1136.76" y1="186.73" x2="1110.24" y2="187.99"/><line class="cls-1" x1="1110.24" y1="187.99" x2="1111.5" y2="161.47"/><line class="cls-1" x1="1093.82" y1="180.42" x2="1111.5" y2="161.47"/><line class="cls-1" x1="1077.4" y1="187.99" x2="1076.14" y2="160.21"/><line class="cls-1" x1="1093.82" y1="180.42" x2="1076.14" y2="160.21"/><line class="cls-1" x1="1077.4" y1="187.99" x2="1049.62" y2="186.73"/><line class="cls-1" x1="1049.62" y1="186.73" x2="1069.82" y2="204.41"/><line class="cls-1" x1="1069.82" y1="204.41" x2="1049.62" y2="222.09"/><line class="cls-1" x1="1049.62" y1="222.09" x2="1077.4" y2="220.83"/><line class="cls-1" x1="1076.14" y1="247.35" x2="1093.82" y2="227.14"/><line class="cls-1" x1="1093.82" y1="227.14" x2="1111.5" y2="247.35"/><line class="cls-1" x1="1111.5" y1="247.35" x2="1110.24" y2="220.83"/><line class="cls-1" x1="1076.14" y1="247.35" x2="1077.4" y2="220.83"/><line class="cls-1" x1="1128.12" y1="170.11" x2="1062.04" y2="236.19"/><line class="cls-1" x1="1061.15" y1="171" x2="1127.23" y2="237.08"/><line class="cls-1" x1="1093.82" y1="156.42" x2="1093.82" y2="249.87"/><line class="cls-1" x1="1047.09" y1="204.41" x2="1140.55" y2="204.41"/><circle class="cls-1" cx="1093.82" cy="203.15" r="46.73"/><circle class="cls-1" cx="1093.82" cy="203.15" r="24"/><circle class="cls-4" cx="1093.88" cy="180.52" r="5.32"/><circle class="cls-4" cx="1093.88" cy="227.29" r="5.32"/><circle class="cls-4" cx="1117.08" cy="204.09" r="5.32"/><circle class="cls-4" cx="1070.31" cy="204.09" r="5.32"/><circle class="cls-4" cx="1094.1" cy="203.93" r="9.32"/><circle class="cls-4" cx="1110.75" cy="187.5" r="5.32"/><circle class="cls-4" cx="1077.67" cy="220.57" r="5.32"/><circle class="cls-4" cx="1110.48" cy="220.57" r="5.32"/><circle class="cls-4" cx="1077.4" cy="187.5" r="5.32"/><circle class="cls-4" cx="1140.28" cy="204.47" r="5.32"/><circle class="cls-4" cx="1046.73" cy="204.47" r="5.32"/><circle class="cls-4" cx="1093.88" cy="250.87" r="5.32"/><circle class="cls-4" cx="1093.88" cy="157.32" r="5.32"/><circle class="cls-4" cx="1126.85" cy="171.29" r="5.32"/><circle class="cls-4" cx="1060.7" cy="237.44" r="5.32"/><circle class="cls-4" cx="1126.85" cy="236.9" r="5.32"/><circle class="cls-4" cx="1060.7" cy="170.75" r="5.32"/><circle class="cls-4" cx="1136.57" cy="222.34" r="5.32"/><circle class="cls-4" cx="1050.15" cy="186.55" r="5.32"/><circle class="cls-4" cx="1075.96" cy="247.45" r="5.32"/><circle class="cls-4" cx="1111.75" cy="161.03" r="5.32"/><circle class="cls-4" cx="1136.86" cy="186.55" r="5.32"/><circle class="cls-4" cx="1050.44" cy="222.34" r="5.32"/><circle class="cls-4" cx="1111.75" cy="247.16" r="5.32"/><circle class="cls-4" cx="1075.96" cy="160.74" r="5.32"/><path class="cls-1" d="M974.46,279.5c29.93-.06,30,39.94,60,39.87s29.86-40.06,59.79-40.12,30,39.94,60,39.87S1184,279.06,1214,279"/><path class="cls-1" d="M974,268.5c0-33.72,27.71-65,57-65"/><path class="cls-1" d="M1213,269.5c0-33.72-27.71-65-57-65"/><g class="cls-15"><path class="cls-16" d="M827.12,436.37q0,.45,0,.9c0,.29,0,.58,0,.86s0,.56.06.82,0,.53.08.77l-1.95-.42-.16-1.76-.08,0a3.07,3.07,0,0,1-.6.65,3.16,3.16,0,0,1-.82.48,3.42,3.42,0,0,1-1,.23,3.89,3.89,0,0,1-1.16-.08,4.07,4.07,0,0,1-1.53-.65,4.46,4.46,0,0,1-1.1-1.11,5.21,5.21,0,0,1-.66-1.39,5.36,5.36,0,0,1-.22-1.48,4.37,4.37,0,0,1,.45-2.07,3.16,3.16,0,0,1,1.32-1.34,5,5,0,0,1,2.16-.57,11.59,11.59,0,0,1,3,.23H825v-.29a5.3,5.3,0,0,0-.07-1,3.93,3.93,0,0,0-.35-1.12,2.82,2.82,0,0,0-.81-1,3.24,3.24,0,0,0-1.43-.6,5.83,5.83,0,0,0-.82-.08,4.36,4.36,0,0,0-.81.07,3.75,3.75,0,0,0-.75.19,3.6,3.6,0,0,0-.66.3l-.48-1.74a4.53,4.53,0,0,1,.8-.37,5.27,5.27,0,0,1,.93-.22,5.64,5.64,0,0,1,1-.07,6,6,0,0,1,1.1.1,5.37,5.37,0,0,1,2.23.9,4.81,4.81,0,0,1,1.38,1.57,7,7,0,0,1,.69,2,11.49,11.49,0,0,1,.18,2.11Zm-2.07-1.77v-2.4l-.08,0-.08,0h-.08l-.08,0a11.13,11.13,0,0,0-1.68-.2,4.69,4.69,0,0,0-1.49.18,2,2,0,0,0-1.06.74,2.44,2.44,0,0,0-.41,1.47,3.61,3.61,0,0,0,.15,1.08,2.56,2.56,0,0,0,.43.82,2.12,2.12,0,0,0,.63.57,2.21,2.21,0,0,0,.77.3,2.57,2.57,0,0,0,1,0,2.23,2.23,0,0,0,.82-.34,2.72,2.72,0,0,0,.61-.61,2.93,2.93,0,0,0,.37-.78l.06-.19c0-.06,0-.13,0-.19l0-.2c0-.07,0-.13,0-.2"/><path class="cls-16" d="M837.31,427.19a5.11,5.11,0,0,1,2.13.91,6.57,6.57,0,0,1,1.69,1.82,8.77,8.77,0,0,1,1.09,2.55,11,11,0,0,1,.34,3.08,10.22,10.22,0,0,1-.57,3.29,5.62,5.62,0,0,1-1.35,2.13,4.2,4.2,0,0,1-1.87,1,4.68,4.68,0,0,1-2.14,0,4.83,4.83,0,0,1-1.18-.4,4.72,4.72,0,0,1-1.05-.65,5.63,5.63,0,0,1-.88-.88,5.49,5.49,0,0,1-.66-1.07h0l-.12,7.54-2.17-.49.19-15.06c0-.45,0-.89,0-1.3s0-.82,0-1.2,0-.75,0-1.11,0-.71,0-1.05l2,.36.06,2.47h0a4.92,4.92,0,0,1,.81-1,3.86,3.86,0,0,1,1-.7,3.61,3.61,0,0,1,1.23-.33A5.09,5.09,0,0,1,837.31,427.19Zm-1,12.75a3.13,3.13,0,0,0,1.62-.06,2.68,2.68,0,0,0,1.22-.88,4.34,4.34,0,0,0,.79-1.58,8.5,8.5,0,0,0,.32-2.2,9,9,0,0,0-.21-2.1,6.81,6.81,0,0,0-.69-1.85,4.78,4.78,0,0,0-1.16-1.39,3.64,3.64,0,0,0-1.61-.72,2.86,2.86,0,0,0-1.13,0,2.79,2.79,0,0,0-1,.47,3.18,3.18,0,0,0-.81.86,4,4,0,0,0-.52,1.23q0,.11-.06.24a2.21,2.21,0,0,0,0,.25,2.51,2.51,0,0,0,0,.27,2.45,2.45,0,0,0,0,.27l0,2.41a2.81,2.81,0,0,0,0,.29,2.45,2.45,0,0,0,0,.27l0,.26,0,.26a5.79,5.79,0,0,0,.45,1.31,5.21,5.21,0,0,0,.75,1.1,4.14,4.14,0,0,0,1,.81,3.47,3.47,0,0,0,1.15.46"/></g><path class="cls-16" d="M811.82,422.68a3.35,3.35,0,0,1,1.21.47,4.39,4.39,0,0,1,1.2,1.14,6.35,6.35,0,0,1,.93,2,10.69,10.69,0,0,1,.38,3l0,8-2-.42,0-7.61a10.7,10.7,0,0,0-.16-1.78,5.35,5.35,0,0,0-.46-1.4,3,3,0,0,0-.76-1,2.49,2.49,0,0,0-1.07-.48,1.79,1.79,0,0,0-1.48.4,2.55,2.55,0,0,0-.52.61,3.12,3.12,0,0,0-.35.79l-.06.25c0,.1,0,.19-.05.3l0,.31c0,.11,0,.22,0,.33l.08,8.21-1.91-.41-.1-7.92a7.19,7.19,0,0,0-.16-1.5,4.9,4.9,0,0,0-.44-1.24,2.92,2.92,0,0,0-.71-.9,2.19,2.19,0,0,0-1-.45,1.69,1.69,0,0,0-.84,0,2,2,0,0,0-.68.43,2.46,2.46,0,0,0-.52.67,4.07,4.07,0,0,0-.31.82,2.13,2.13,0,0,0-.07.27,2.36,2.36,0,0,0,0,.28,2.83,2.83,0,0,0,0,.29,1.5,1.5,0,0,0,0,.3l.13,7.9-1.85-.4-.18-9.51c0-.34,0-.67,0-1s0-.62,0-.91,0-.58,0-.86l-.06-.84,1.68.3.13,2.16h.06a4.85,4.85,0,0,1,.5-.82,3.14,3.14,0,0,1,.7-.66,2.52,2.52,0,0,1,.92-.38,3.22,3.22,0,0,1,2.23.39,3.48,3.48,0,0,1,.88.71,5,5,0,0,1,.7,1,5.63,5.63,0,0,1,.49,1.18h0c.08-.17.17-.33.26-.49a4.27,4.27,0,0,1,.29-.41,3.73,3.73,0,0,1,.32-.36,4.09,4.09,0,0,1,.33-.28,2.72,2.72,0,0,1,.51-.32,2.48,2.48,0,0,1,.56-.2,2.62,2.62,0,0,1,.64-.07A3.9,3.9,0,0,1,811.82,422.68Z"/></g></g></svg>